<svg width="32" height="15" viewBox="0 0 32 15" fill="none" xmlns="http://www.w3.org/2000/svg">
<g filter="url(#filter0_i_296_540)">
<path d="M1.50435 8.35393C1.36502 8.32297 1.03994 8.24363 0.846408 8.17397L0.796115 8.16236L0.749662 8.15462L0.701289 8.14881L0.652916 8.14688L0.604528 8.14804L0.55614 8.15462L0.478735 8.1701L0.40133 8.19719L0.362627 8.21654L0.323925 8.23783L0.285222 8.26105L0.24652 8.28814L0.188466 8.34039L0.154815 8.37909L0.124627 8.41779L0.104888 8.44682L0.0878395 8.47585L0.0646279 8.51919L0.0414162 8.5726L0.0181947 8.65001L0.0104542 8.68871L0.00777078 8.70858C0.00259729 8.74688 0.000253664 8.78552 0.000758932 8.82417L0.00656431 8.88222L0.0123893 8.92093L0.0201102 8.95963L0.0317406 8.99833L0.0452668 9.03703L0.0607478 9.07574L0.0888071 9.12605L0.116866 9.17249L0.148796 9.21506L0.180726 9.2499L0.213623 9.28473L0.24652 9.31182L0.253722 9.31686C0.300442 9.34957 0.349817 9.3783 0.40133 9.40277L0.478735 9.42986L0.672247 9.48985L0.86576 9.54404L1.0167 9.58274L1.16764 9.61757L1.30697 9.64853L1.4463 9.67562L1.61465 9.70659L1.78301 9.73368L2.06554 9.76967L2.3171 9.78902L2.52997 9.79754H2.76218L2.87829 9.79173L2.9944 9.78399L3.12986 9.76967L3.26531 9.75032L3.36403 9.73174L3.45883 9.71317L3.61364 9.67291L3.72974 9.63576L3.78975 9.61409L3.84585 9.59241L3.94551 9.55178L4.04517 9.50146L4.13225 9.45308L4.21353 9.40471L4.28244 9.35633L4.34898 9.30795L4.44187 9.23055L4.50072 9.17249L4.55798 9.11444L4.6199 9.0409L4.64972 9.00414L4.67796 8.96737L4.71513 8.91706L4.74955 8.86674L4.81341 8.76612L4.86295 8.67903L4.91017 8.59195L4.95971 8.48552L5.00693 8.37909L5.06304 8.23589L5.10368 8.12365L5.14238 8.01142L5.21979 7.75985L5.29526 7.48893L5.3568 7.25672L5.39782 7.10191L5.45007 6.9084L5.49458 6.75359L5.54876 6.57942L5.58359 6.48267L5.62617 6.36656L5.68422 6.2311L5.72952 6.13435L5.78214 6.03759L5.83903 5.95244L5.89708 5.8762L5.94449 5.82705L5.9919 5.78602L6.04125 5.75119L6.0906 5.7241L6.13897 5.70475L6.18735 5.68927L6.28411 5.67146L6.38086 5.66605L6.42924 5.66798C6.46144 5.67107 6.49331 5.67689 6.52452 5.68537L6.5289 5.68656L6.55454 5.69701L6.58018 5.70862L6.62082 5.73377L6.66146 5.76667L6.68431 5.78854L6.70403 5.81041L6.74854 5.86343L6.78724 5.91955L6.82594 5.97954L6.86658 6.05694L6.90335 6.13435L6.93547 6.20208L6.96334 6.2698L7.00281 6.37043L7.03881 6.47106L7.10267 6.67618L7.15685 6.86969L7.19865 7.0245L7.25167 7.23737L7.30972 7.48119L7.36778 7.73082L7.42777 7.99207L7.48389 8.22428L7.56129 8.51842L7.62089 8.72741L7.69288 8.95963L7.76061 9.15314L7.83608 9.34665L7.90961 9.51694L7.98702 9.67562L8.03346 9.7627L8.08377 9.84978L8.13177 9.92719L8.18324 10.0046L8.23858 10.082L8.29664 10.1594L8.39494 10.2755L8.46886 10.3529L8.5482 10.4303L8.63915 10.5077L8.72237 10.5727L8.82202 10.6413L8.92168 10.7012L8.99715 10.7399L9.07649 10.7786L9.1868 10.8232L9.2642 10.8499L9.34161 10.8723L9.43836 10.8971L9.53512 10.916L9.6551 10.9335L9.73057 10.94L9.80604 10.9451L9.87376 10.9466L9.94149 10.9462L10.0479 10.9431L10.1544 10.9335L10.2705 10.9199L10.3866 10.8967L10.4737 10.8773L10.5607 10.851L10.6478 10.8224L10.7349 10.7879L10.8123 10.7535L10.8897 10.7156L10.9574 10.678L11.0252 10.6374L11.1413 10.558L11.2535 10.469L11.3371 10.3916L11.4141 10.3142L11.4722 10.2499L11.5264 10.1855L11.5771 10.1212L11.6251 10.0568L11.6715 9.98718L11.716 9.91751L11.7597 9.84495L11.8004 9.77238L11.8611 9.65627L11.9153 9.54016L11.9792 9.38535L12.0268 9.25957L12.0701 9.13379L12.1243 8.95963L12.1669 8.80482L12.2211 8.5726L12.254 8.41779L12.283 8.26298L12.3101 8.10817L12.3345 7.95336L12.372 7.68245L12.4126 7.33412L12.4312 7.14061L12.4572 6.85034L12.4757 6.6278L12.492 6.40526L12.5152 6.05694L12.5415 5.66992L12.5713 5.24419L12.5938 4.93457L12.6244 4.58625L12.6542 4.27663L12.7087 3.8509L12.7436 3.61868L12.7881 3.38647L12.8306 3.19296L12.8809 2.99944L12.91 2.90269L12.9409 2.80593L12.9796 2.70143L13.0183 2.60661L13.057 2.52147L13.0957 2.44677L13.1344 2.3802L13.1732 2.31905L13.2312 2.24087L13.2893 2.17508L13.328 2.14025L13.3667 2.10929L13.3967 2.08839L13.4267 2.07058L13.4741 2.0462L13.5215 2.02685L13.564 2.01446L13.5989 2.00672L13.6569 1.9955L13.715 1.99047L13.7537 1.99008C13.7666 1.99137 13.7793 1.99365 13.7919 1.99691L13.7924 1.99705L13.8098 2.00247C13.8214 2.00788 13.8325 2.01424 13.8431 2.02148L13.8582 2.03188L13.8853 2.05607L13.9085 2.08026L13.9472 2.12864L13.9797 2.17702L14.0084 2.22539L14.0393 2.28345L14.0672 2.3415L14.1055 2.43148L14.1407 2.52147L14.2053 2.72853L14.2441 2.87366L14.2774 3.01879L14.3071 3.16393L14.3342 3.30906L14.3729 3.56063L14.4116 3.8509L14.4519 4.23792L14.4863 4.66365L14.5161 5.14743L14.5355 5.55381L14.5548 6.01824L14.5695 6.42461L14.5819 6.75359L14.5916 7.10191L14.6051 7.52764L14.6187 7.85661L14.6303 8.14688L14.6361 8.33071L14.6438 8.51455L14.6632 8.88222L14.6787 9.15314L14.698 9.46276L14.7154 9.69497L14.7348 9.92719L14.7623 10.2368L14.7987 10.5851L14.8335 10.856L14.871 11.127L14.9163 11.4172L14.9744 11.7269L15.027 11.9784L15.092 12.2493L15.1373 12.4138L15.1857 12.5783L15.2418 12.7525L15.289 12.8879L15.3405 13.0234L15.3966 13.1569L15.4566 13.2904L15.5185 13.4182L15.5866 13.5459L15.6548 13.662L15.7275 13.7781L15.7945 13.8748L15.8657 13.9716L15.9791 14.1071L16.0623 14.1961L16.1068 14.2406L16.1532 14.2851L16.2469 14.3683L16.356 14.4554L16.4578 14.525L16.5596 14.5897L16.6467 14.6365L16.7338 14.6799L16.8305 14.722L16.9273 14.7592L17.024 14.7913L17.1208 14.8176L17.2272 14.8424L17.3337 14.8618L17.4401 14.8745L17.5465 14.883L17.6433 14.8869L17.74 14.8873L17.8175 14.885L17.8949 14.8811L17.9723 14.8745L18.0497 14.8656L18.1658 14.8471L18.2819 14.8231L18.4173 14.7863L18.5528 14.7406L18.6399 14.7054L18.727 14.6667L18.8624 14.5966L18.9427 14.5471L19.023 14.4941L19.0908 14.4457L19.1539 14.3973L19.2456 14.3199L19.328 14.2425L19.4077 14.1612L19.4817 14.08L19.5629 13.9774L19.6403 13.8748L19.6922 13.7974L19.741 13.72L19.8106 13.6039L19.8726 13.4878L19.938 13.3524L19.9983 13.2169L20.0456 13.1008L20.0893 12.9847L20.1354 12.8492L20.1783 12.7138L20.2093 12.6073L20.2379 12.5009L20.2704 12.3751L20.3002 12.2493L20.3293 12.1139L20.3563 11.9784L20.3827 11.8333L20.4066 11.6882L20.4446 11.4366L20.4833 11.127L20.5088 10.8754L20.5317 10.6238L20.5483 10.3916L20.5638 10.1594L20.5719 10.0046L20.5874 9.69497L20.5982 9.38535L20.6068 9.05638L20.6156 8.5339L20.6195 8.14688L20.6234 7.64374L20.6246 7.06321L20.6253 6.83099L20.6265 6.63748L20.6311 6.13435L20.6369 5.82473L20.6427 5.4764L20.6543 5.12808L20.666 4.81846L20.6834 4.50884L20.7023 4.23792L20.724 3.96701L20.7588 3.65739L20.7782 3.4929L20.8014 3.32841L20.8498 3.03815L20.9137 2.72853L20.9485 2.59307L20.986 2.45761L21.0189 2.35118L21.0549 2.24474L21.0956 2.13831L21.1401 2.03188L21.195 1.91577L21.238 1.83837L21.2844 1.76096L21.3309 1.69323L21.382 1.6255L21.4369 1.56474L21.4942 1.5094L21.5522 1.46373L21.6103 1.42503L21.6684 1.39406L21.7264 1.36891L21.7941 1.34685L21.8619 1.32943L21.9296 1.31976L21.9973 1.31047L22.0747 1.3066L22.1521 1.30814L22.2102 1.31588L22.2392 1.3213L22.2682 1.32982L22.3166 1.34762L22.3408 1.36001L22.365 1.37394L22.3906 1.39329L22.4134 1.41264L22.4501 1.45134L22.4811 1.49005L22.5082 1.52875L22.5426 1.5868L22.5721 1.64486L22.6061 1.72226L22.6359 1.79967L22.6669 1.89642L22.694 1.99318L22.7261 2.12864L22.7512 2.2641L22.7648 2.35118L22.7772 2.43826L22.7985 2.61242L22.8151 2.80593L22.8275 2.99944L22.8399 3.30906L22.843 3.65739L22.8403 4.04441L22.8333 4.35403L22.8275 4.54754L22.8178 4.81846L22.8081 5.12808L22.7927 5.4764L22.781 5.78602L22.7714 6.09564L22.7667 6.30851L22.7609 6.56007L22.7578 6.75359L22.759 7.06321L22.7636 7.37283L22.7733 7.64374L22.7927 7.95336L22.8139 8.18558L22.8314 8.34039L22.8526 8.4952L22.8778 8.65001L22.9084 8.80482L22.9339 8.92673L22.9649 9.04864L23.0024 9.1783L23.0446 9.30795L23.094 9.43838L23.1449 9.55952L23.1987 9.67175L23.2532 9.77238L23.3132 9.87301L23.3751 9.96589L23.4583 10.0739L23.5454 10.1737L23.617 10.2446L23.6944 10.3142L23.7533 10.3616L23.8163 10.409L23.8995 10.4644L23.9905 10.5174L24.0776 10.5611L24.1647 10.5991L24.2517 10.6312L24.3388 10.6587L24.4259 10.6819L24.513 10.6993L24.5807 10.7109L24.6484 10.7206L24.7355 10.7322L24.8226 10.7399L24.9194 10.7477L25.0161 10.7523L25.1322 10.7516L25.2483 10.7465L25.3257 10.7407L25.4031 10.7314L25.4805 10.719L25.558 10.7039L25.6354 10.6858L25.7128 10.6625L25.7757 10.6409L25.8385 10.6169L25.9014 10.5894L25.9643 10.56L26.0727 10.4981L26.1733 10.4303L26.2295 10.3858L26.2798 10.3413L26.3274 10.2968L26.3707 10.2523L26.409 10.2097L26.4435 10.1671L26.4772 10.1246L26.5081 10.082L26.5576 10.0046L26.6029 9.92719L26.63 9.87397L26.6552 9.82076L26.6788 9.76754L26.6997 9.71433L26.7411 9.59822L26.7744 9.48211L26.8003 9.37568L26.8204 9.26925L26.8375 9.16282L26.8506 9.05638L26.8673 8.88222L26.8758 8.70806L26.8816 8.4565L26.8808 8.22428L26.875 7.85661L26.8738 7.68245V7.48893L26.8777 7.29542L26.8874 7.14061L26.9029 6.9858L26.9241 6.85034L26.9435 6.75359L26.9667 6.6665L26.9899 6.59878L27.0151 6.54072L27.0441 6.48267L27.0712 6.43913L27.1061 6.39559L27.1448 6.35572L27.1835 6.32399L27.2125 6.30464L27.2415 6.28683L27.2996 6.25819L27.377 6.2311L27.4157 6.21949L27.4544 6.20904L27.4931 6.20091L27.5318 6.19627L27.5802 6.1924L27.6285 6.19356L27.6769 6.20014L27.7253 6.21369L27.7653 6.22994L27.8054 6.25045L27.8369 6.26787L27.8685 6.28916L27.9219 6.32786L27.9562 6.35495L27.9916 6.38591L28.0543 6.44397L28.1115 6.50008L28.1688 6.56007L28.3097 6.71488L28.4103 6.83099L28.5148 6.9471L28.5833 7.0245L28.6542 7.10191L28.7257 7.17931L28.8012 7.25672L28.8902 7.34477L28.9831 7.43281L29.0605 7.50054L29.1379 7.56634L29.2347 7.64374L29.3314 7.71457L29.4379 7.78501L29.5443 7.8508L29.6991 7.93401L29.8152 7.98819L29.9313 8.0358L30.0668 8.08495L30.1926 8.12172L30.2555 8.13836L30.3184 8.15268L30.4732 8.18364L30.5699 8.19719L30.6667 8.20686L30.7731 8.21538L30.8795 8.22041H30.9956L31.1118 8.21654L31.2279 8.2088L31.344 8.19719L31.4117 8.18945L31.4794 8.17784L31.5375 8.16352L31.5955 8.143L31.6342 8.12559L31.6729 8.1043L31.7024 8.08592L31.7283 8.06754L31.7535 8.04915L31.7755 8.03077L31.7968 8.01142L31.8158 7.99207L31.8336 7.97271L31.8502 7.95336L31.88 7.91466L31.9052 7.87596L31.923 7.84693L31.9361 7.8179L31.9497 7.78888L31.9613 7.75985L31.9741 7.72115L31.9837 7.68245L31.9915 7.64374L31.9961 7.60504L32 7.56634L32 7.52764L31.9973 7.47926L31.9903 7.43088L31.9806 7.3825L31.9671 7.33412L31.945 7.27607L31.9168 7.21802L31.8858 7.16964L31.851 7.12126L31.8161 7.08256L31.7736 7.04385L31.7271 7.00709L31.6729 6.97148L31.6149 6.94129L31.5568 6.91846L31.5278 6.90994L31.4988 6.90259L31.4407 6.89098L31.402 6.88672L31.3633 6.88401H31.3246L31.2859 6.88711L31.1892 6.89911L31.0924 6.9084L30.9763 6.91227H30.8795L30.7828 6.90452L30.7054 6.89678L30.628 6.8813L30.5602 6.86737L30.4925 6.84841L30.417 6.82325L30.3416 6.79229L30.2816 6.76326L30.2216 6.73036L30.1635 6.69631L30.1055 6.65876L30.0387 6.61116L29.972 6.56007L29.8926 6.49273L29.7978 6.40526L29.6817 6.28916L29.5404 6.13435L29.405 5.97954L29.2695 5.82473L29.1263 5.66992L29.0141 5.55381L28.9224 5.46673L28.8264 5.37965L28.7083 5.28289L28.6 5.20549L28.5419 5.16678L28.4788 5.12808L28.4076 5.08938L28.331 5.05068L28.2604 5.01971L28.1897 4.99069L28.0736 4.95198L27.9962 4.93186L27.9188 4.91522L27.8414 4.90244L27.764 4.892L27.6866 4.88619L27.6092 4.88425L27.5318 4.88619L27.4544 4.8889L27.377 4.8978L27.2996 4.90941L27.2222 4.92296L27.1448 4.93844L27.048 4.96476L26.9512 4.99456L26.8545 5.02823L26.7577 5.06809L26.6416 5.12421L26.5255 5.19L26.4481 5.24109L26.3707 5.29644L26.2991 5.35643L26.2314 5.41835L26.1753 5.47447L26.1191 5.53446L26.065 5.60219L26.0146 5.66992L25.9759 5.72603L25.9372 5.78602L25.8927 5.86343L25.8521 5.94083L25.8087 6.03759L25.7689 6.13435L25.7379 6.22143L25.7101 6.30851L25.6884 6.38591L25.6702 6.46332L25.6509 6.54653L25.6338 6.63748L25.6092 6.79229L25.5858 7.0245L25.5785 7.14061L25.5734 7.25672L25.5684 7.39218L25.5657 7.52764L25.5669 7.75985L25.5696 7.99207L25.5734 8.24363V8.51455L25.5657 8.72741L25.5502 8.92093L25.5359 9.01768L25.5181 9.11444L25.5014 9.18217L25.4786 9.2499L25.4612 9.2886L25.443 9.32246L25.4264 9.34665L25.4208 9.35331C25.4137 9.36175 25.4058 9.36946 25.3971 9.37631C25.3895 9.38233 25.3814 9.38766 25.3729 9.39225L25.3606 9.3989L25.3373 9.40858L25.287 9.42406L25.229 9.43567L25.1516 9.44341L25.0355 9.44534L24.9194 9.4376L24.8052 9.42406L24.7258 9.40858L24.6904 9.39794C24.6625 9.38957 24.6355 9.37848 24.6097 9.36484L24.571 9.34085L24.5459 9.32188L24.5207 9.30021L24.4743 9.2499L24.4356 9.19958L24.3969 9.13766L24.3504 9.05251L24.3098 8.95963L24.2723 8.8532L24.2382 8.74676L24.2072 8.62292L24.1801 8.4952L24.155 8.35974L24.1356 8.22428L24.1124 8.03077L24.0923 7.79855L24.0814 7.64374L24.0756 7.48893L24.0699 7.33412L24.0679 7.17931L24.0648 6.99548L24.066 6.81164L24.0706 6.44397L24.0795 6.13435L24.0892 5.82473L24.1008 5.51511L24.1066 5.32159L24.1221 4.97327L24.1337 4.66365L24.1434 4.29598L24.1492 3.96701L24.1511 3.65739L24.1472 3.32841L24.1434 3.16393L24.1356 2.99944L24.126 2.81561L24.1124 2.63177L24.0919 2.41891L24.0698 2.24474L24.0524 2.11896L24.0292 1.99318L24.004 1.85772L23.9735 1.72226L23.9499 1.6255L23.9208 1.52875L23.8914 1.43199L23.8589 1.33524L23.7815 1.14172L23.7331 1.04303L23.6847 0.948211L23.6364 0.865968L23.5841 0.783726L23.5164 0.69084L23.4448 0.599889L23.3809 0.532159L23.3481 0.498295L23.3132 0.46443L23.2552 0.412182L23.1971 0.363803L23.1178 0.30575L23.0384 0.251566L22.9629 0.209768L22.8875 0.170291L22.8101 0.135846L22.7327 0.104497L22.6166 0.0696645L22.5392 0.0487651L22.4618 0.0328971L22.3456 0.0135459L22.2489 0.00541835L22.1521 0H22.0631L21.9586 0.00193512L21.7458 0.0232215L21.5716 0.0541835L21.4168 0.092886L21.3297 0.121139L21.2426 0.153494L21.1555 0.189642L21.0685 0.232215L20.9717 0.282528L20.8749 0.342517L20.7888 0.402506L20.7027 0.466365L20.6323 0.527709L20.5653 0.589052L20.487 0.665683L20.4074 0.754699L20.3277 0.851455L20.2557 0.948211L20.1841 1.05464L20.1195 1.16107L20.0699 1.24816L20.0235 1.33524L19.9678 1.45134L19.9151 1.56745L19.8629 1.6971L19.8106 1.83837L19.7681 1.96802L19.7255 2.10929L19.6912 2.23391L19.657 2.36085L19.6241 2.50599L19.5939 2.65112L19.563 2.80593L19.5358 2.96074L19.503 3.1736L19.4747 3.38647L19.4554 3.54128L19.4391 3.69609L19.4217 3.87025L19.4066 4.04441L19.3818 4.39273L19.3617 4.74106L19.3462 5.14743L19.3334 5.55381L19.3268 5.86343L19.323 6.2311L19.3203 6.48267L19.3184 6.81164L19.3164 7.10191L19.316 7.33412L19.3141 7.68245L19.3129 8.01142L19.3102 8.26298L19.3075 8.55325L19.3044 8.78547L19.299 9.03703L19.2913 9.3273L19.2804 9.61757L19.2688 9.88849L19.2514 10.1981L19.2301 10.5077L19.2057 10.7786L19.1798 11.0109L19.1469 11.2818L19.1078 11.5333L19.09 11.6398L19.0695 11.7462L19.0463 11.8623L19.0211 11.9784L18.9909 12.1042L18.9572 12.23L18.9243 12.3461L18.8856 12.4622L18.8489 12.5686L18.8063 12.6751L18.7657 12.7718L18.7192 12.8686L18.6797 12.946L18.636 13.0234L18.5857 13.1008L18.5296 13.1782L18.4831 13.2343L18.4289 13.2943L18.3748 13.3446L18.3206 13.3899L18.2412 13.4452L18.1619 13.4878L18.0884 13.5188L18.011 13.542L17.9529 13.5575L17.8949 13.5664L17.8175 13.5768L17.74 13.5807L17.6239 13.5788L17.5756 13.5749L17.5272 13.5672L17.4885 13.5614L17.4304 13.5478L17.353 13.5227L17.3143 13.5072L17.2756 13.4898L17.2176 13.4588L17.1421 13.4104L17.0724 13.3543L17.0086 13.2943L16.9644 13.2479L16.9203 13.1956L16.8841 13.1492L16.848 13.1008L16.7957 13.0234L16.7493 12.946L16.7028 12.8608L16.6564 12.7703L16.579 12.5977L16.5422 12.5048L16.5054 12.4042L16.4731 12.3113L16.4408 12.2106L16.3839 12.0171L16.3483 11.8817L16.3158 11.7462L16.2849 11.6107L16.2566 11.4753L16.2094 11.2237L16.1726 10.9915L16.1339 10.7206L16.0971 10.4303L16.0681 10.1594L16.0391 9.84978L16.0159 9.55952L15.9984 9.29634L15.981 9.03703L15.9663 8.76612L15.9501 8.41779L15.9365 8.10817L15.9261 7.83726L15.9172 7.56634L15.9083 7.33412L15.8997 7.06321L15.892 6.83099L15.8843 6.59878L15.8746 6.28916L15.8649 6.01824L15.8572 5.82473L15.8494 5.63121L15.8382 5.399L15.8281 5.20549L15.8204 5.05068L15.8069 4.81846L15.7894 4.56689L15.774 4.35403L15.7527 4.12182L15.7333 3.90895L15.714 3.73479L15.6888 3.54128L15.6637 3.34777L15.6269 3.11555L15.6106 3.02266L15.5921 2.92204L15.5561 2.74788L15.5166 2.57372L15.476 2.41891L15.4485 2.32215L15.4191 2.22539L15.3935 2.14799L15.3664 2.07058L15.3378 1.99318L15.3076 1.91577L15.2476 1.78031L15.2108 1.70291L15.1811 1.64486L15.1489 1.5868L15.1184 1.53359L15.0866 1.48037L15.0154 1.37394L14.9535 1.29266L14.8761 1.19978L14.8122 1.13205L14.7387 1.06432L14.6748 1.01014L14.6051 0.957113L14.5277 0.905638L14.4503 0.861131L14.3923 0.832104L14.2955 0.787596L14.2181 0.760117L14.1407 0.735347L14.0633 0.717544L13.9859 0.70245L13.9085 0.691614L13.8311 0.685034L13.7537 0.683099L13.6763 0.683486L13.5979 0.688904L13.5403 0.693936L13.4828 0.700515L13.386 0.715996L13.2893 0.735347L13.1906 0.762439L13.1412 0.776759L13.0919 0.793401L12.999 0.828233L12.9022 0.870806L12.8287 0.907574L12.7552 0.948211L12.6545 1.01207L12.5539 1.08367L12.4765 1.14946L12.3991 1.21913L12.3333 1.28299L12.2675 1.35459L12.2114 1.42232L12.1591 1.49005L12.103 1.56745L12.0508 1.64486L11.9579 1.79967L11.8786 1.95448L11.7992 2.12864L11.7412 2.28151L11.7083 2.37053L11.6792 2.45761L11.6262 2.63177L11.5918 2.75755L11.5612 2.88334L11.5426 2.96074L11.5264 3.03815L11.4935 3.19296L11.4652 3.34777L11.4335 3.54128L11.4103 3.69609L11.3898 3.8509L11.3696 4.00571L11.3522 4.16052L11.3367 4.31533L11.3174 4.50884L11.3038 4.66365L11.2883 4.85716L11.2709 5.08938L11.2574 5.28289L11.2438 5.4764L11.2315 5.66992L11.2206 5.84408L11.2051 6.05694L11.1955 6.21175L11.1812 6.40526L11.1695 6.56007L11.1568 6.71488L11.1405 6.9084L11.1219 7.10191L11.1064 7.25672L11.0883 7.41153L11.0677 7.56634L11.0523 7.68245L11.0291 7.83726L11.0031 7.99207L10.9671 8.18558L10.9284 8.35974L10.911 8.43714L10.8897 8.51455L10.8626 8.61131L10.8336 8.70806L10.8046 8.79514L10.7736 8.88222L10.7155 9.01768L10.6939 9.06606L10.6691 9.11444L10.6382 9.17249L10.6033 9.23055L10.5662 9.2886L10.524 9.34665L10.4911 9.38535L10.4562 9.42406L10.4272 9.45308L10.3943 9.48211L10.3556 9.51114L10.3131 9.54016L10.2771 9.55952L10.2384 9.57887L10.1892 9.59822L10.135 9.6137L10.0866 9.62415L10.0382 9.63112L9.9802 9.63692L9.92214 9.63847L9.86409 9.6377L9.80604 9.63421L9.72863 9.62144L9.68025 9.60983L9.63187 9.59241L9.57382 9.56648L9.52352 9.53629L9.47321 9.50146L9.42677 9.46276L9.38611 9.42406L9.34451 9.37839L9.3029 9.32537L9.2642 9.26925L9.2255 9.21119L9.18682 9.1454L9.14966 9.07574L9.10167 8.97898L9.05832 8.88222L9.01923 8.78547L8.98285 8.68871L8.91783 8.4952L8.86943 8.34039L8.82572 8.18558L8.79009 8.05012L8.72624 7.79855L8.67979 7.60504L8.64496 7.45023L8.5997 7.25672L8.56368 7.10191L8.52616 6.9471L8.47467 6.73423L8.42902 6.56007L8.39728 6.44397L8.33534 6.23497L8.29782 6.11693L8.25794 5.99889L8.22622 5.91181L8.19332 5.82473L8.16275 5.74732L8.11282 5.63121L8.05748 5.51511L8.02884 5.45705L7.99671 5.399L7.95375 5.32159L7.91892 5.26354L7.88059 5.20549L7.8419 5.14743L7.8001 5.08938L7.74902 5.02358L7.69483 4.95779L7.64917 4.90748L7.59999 4.85716L7.56129 4.81846L7.52259 4.78363L7.46453 4.73332L7.40648 4.68687L7.31746 4.62495L7.26717 4.59399L7.21297 4.56302L7.16461 4.53593L7.10847 4.50884L7.06203 4.48833L7.01558 4.47014L6.95755 4.44885L6.884 4.42563L6.81627 4.40705L6.74854 4.39273L6.67113 4.37919L6.59373 4.36951L6.53567 4.36371L6.47762 4.35984L6.41957 4.35868L6.36151 4.35906L6.30346 4.35984L6.24541 4.36371L6.14865 4.37145L6.07124 4.38112L5.99384 4.39467L5.92611 4.40821L5.85838 4.42447L5.74227 4.45853L5.66487 4.48678L5.58746 4.51813L5.51006 4.55335L5.43265 4.59399L5.35525 4.63849L5.27784 4.68881L5.20626 4.74106L5.13851 4.79524L5.06887 4.85523L5.00693 4.91522L4.95276 4.9723L4.90243 5.02939L4.81341 5.13776L4.69731 5.30611L4.6199 5.4377L4.57348 5.52478L4.52897 5.61186L4.44187 5.80537L4.37416 5.97954L4.32576 6.11499L4.26386 6.30851L4.20772 6.50202L4.15354 6.69553L4.09548 6.9084L4.03549 7.14061L3.97744 7.35347L3.91939 7.54699L3.86133 7.72115L3.77619 7.93401L3.72589 8.03077C3.68977 8.09527 3.65571 8.16179 3.60624 8.21673C3.57869 8.24731 3.54246 8.28098 3.49753 8.30943L3.42981 8.34813L3.36209 8.37909L3.22661 8.4236L3.09115 8.45456L2.93634 8.47585C2.76218 8.4952 2.60737 8.48939 2.52997 8.48939C2.43321 8.48862 2.31324 8.48165 2.16229 8.46424C1.91073 8.43521 1.67851 8.39264 1.50435 8.35393Z" fill="#F5F6FA"/>
</g>
<defs>
<filter id="filter0_i_296_540" x="0.000732422" y="0" width="32.3746" height="15.8873" filterUnits="userSpaceOnUse" color-interpolation-filters="sRGB">
<feFlood flood-opacity="0" result="BackgroundImageFix"/>
<feBlend mode="normal" in="SourceGraphic" in2="BackgroundImageFix" result="shape"/>
<feColorMatrix in="SourceAlpha" type="matrix" values="0 0 0 0 0 0 0 0 0 0 0 0 0 0 0 0 0 0 127 0" result="hardAlpha"/>
<feOffset dx="0.375378" dy="1.12614"/>
<feGaussianBlur stdDeviation="0.5"/>
<feComposite in2="hardAlpha" operator="arithmetic" k2="-1" k3="1"/>
<feColorMatrix type="matrix" values="0 0 0 0 0.0780969 0 0 0 0 0.0453646 0 0 0 0 0.279167 0 0 0 0.25 0"/>
<feBlend mode="normal" in2="shape" result="effect1_innerShadow_296_540"/>
</filter>
</defs>
</svg>
